<svg width="512" height="512" viewBox="0 0 512 512" fill="none" xmlns="http://www.w3.org/2000/svg">
<g clip-path="url(#clip0_1_6)">
<rect width="512" height="512" fill="white"/>
<path d="M170.667 64H85.3333C79.6754 64 74.2492 66.2476 70.2484 70.2484C66.2476 74.2492 64 79.6754 64 85.3333V170.667M170.667 448H85.3333C79.6754 448 74.2492 445.752 70.2484 441.752C66.2476 437.751 64 432.325 64 426.667V341.333M341.333 448H426.667C432.325 448 437.751 445.752 441.752 441.752C445.752 437.751 448 432.325 448 426.667V341.333M341.333 64H426.667C432.325 64 437.751 66.2476 441.752 70.2484C445.752 74.2492 448 79.6754 448 85.3333V170.667" stroke="#0EA5E9" stroke-width="12" stroke-linecap="round" stroke-linejoin="round"/>
<path d="M341.333 149.333H170.667C158.885 149.333 149.333 158.885 149.333 170.667V341.333C149.333 353.115 158.885 362.667 170.667 362.667H341.333C353.115 362.667 362.667 353.115 362.667 341.333V170.667C362.667 158.885 353.115 149.333 341.333 149.333Z" stroke="#0EA5E9" stroke-width="20"/>
</g>
<defs>
<clipPath id="clip0_1_6">
<rect width="512" height="512" fill="white"/>
</clipPath>
</defs>
</svg>
